<svg width="31" height="31" viewBox="0 0 31 31" fill="none" xmlns="http://www.w3.org/2000/svg">
<rect x="4.91016" y="0.773438" width="26.1278" height="26.1278" rx="13.0639" transform="rotate(9.10941 4.91016 0.773438)" fill="#E12826"/>
<path d="M9.01129 18.5104C8.51383 18.8704 8.40238 19.5655 8.76236 20.0629C9.12233 20.5604 9.81742 20.6718 10.3149 20.3119L9.01129 18.5104ZM22.2253 11.2912C22.3225 10.6849 21.9098 10.1146 21.3035 10.0173L11.4233 8.43312C10.817 8.33591 10.2467 8.7486 10.1495 9.3549C10.0523 9.9612 10.465 10.5315 11.0713 10.6287L19.8537 12.0369L18.4455 20.8193C18.3483 21.4256 18.761 21.9959 19.3673 22.0932C19.9736 22.1904 20.5439 21.7777 20.6411 21.1714L22.2253 11.2912ZM9.66309 19.4111L10.3149 20.3119L21.7793 12.0159L21.1275 11.1151L20.4757 10.2144L9.01129 18.5104L9.66309 19.4111Z" fill="white"/>
</svg>
